<svg width="1353" height="418" viewBox="0 0 1353 418" fill="none" xmlns="http://www.w3.org/2000/svg">
<rect width="1352.94" height="417.941" transform="translate(0.029541 0.029541)" fill="#1E1E1E"/>
<g filter="url(#filter0_d_8_6)">
<path d="M370.863 92.7149L111.208 163M111.208 163L146.715 101.136M111.208 163L173.072 198.507M155.136 325.285L414.792 255M414.792 255L352.928 219.493M414.792 255L379.285 316.864" stroke="#FF9900" stroke-width="24" stroke-linecap="round" stroke-linejoin="round"/>
</g>
<g filter="url(#filter1_d_8_6)">
<path d="M617.198 195H597.289C596.925 192.424 596.183 190.136 595.061 188.136C593.94 186.106 592.501 184.379 590.743 182.955C588.986 181.53 586.955 180.439 584.652 179.682C582.38 178.924 579.91 178.545 577.243 178.545C572.425 178.545 568.228 179.742 564.652 182.136C561.077 184.5 558.304 187.955 556.334 192.5C554.364 197.015 553.38 202.5 553.38 208.955C553.38 215.591 554.364 221.167 556.334 225.682C558.334 230.197 561.122 233.606 564.698 235.909C568.273 238.212 572.41 239.364 577.107 239.364C579.743 239.364 582.183 239.015 584.425 238.318C586.698 237.621 588.713 236.606 590.47 235.273C592.228 233.909 593.683 232.258 594.834 230.318C596.016 228.379 596.834 226.167 597.289 223.682L617.198 223.773C616.683 228.045 615.395 232.167 613.334 236.136C611.304 240.076 608.561 243.606 605.107 246.727C601.683 249.818 597.592 252.273 592.834 254.091C588.107 255.879 582.758 256.773 576.789 256.773C568.486 256.773 561.061 254.894 554.516 251.136C548.001 247.379 542.849 241.939 539.061 234.818C535.304 227.697 533.425 219.076 533.425 208.955C533.425 198.803 535.334 190.167 539.152 183.045C542.97 175.924 548.152 170.5 554.698 166.773C561.243 163.015 568.607 161.136 576.789 161.136C582.183 161.136 587.183 161.894 591.789 163.409C596.425 164.924 600.531 167.136 604.107 170.045C607.683 172.924 610.592 176.455 612.834 180.636C615.107 184.818 616.561 189.606 617.198 195ZM630.948 255.5V185.682H649.72V197.864H650.448C651.72 193.53 653.857 190.258 656.857 188.045C659.857 185.803 663.311 184.682 667.22 184.682C668.19 184.682 669.236 184.742 670.357 184.864C671.478 184.985 672.463 185.152 673.311 185.364V202.545C672.402 202.273 671.145 202.03 669.539 201.818C667.933 201.606 666.463 201.5 665.13 201.5C662.281 201.5 659.736 202.121 657.493 203.364C655.281 204.576 653.523 206.273 652.22 208.455C650.948 210.636 650.311 213.152 650.311 216V255.5H630.948ZM701.232 256.818C696.777 256.818 692.808 256.045 689.323 254.5C685.838 252.924 683.08 250.606 681.05 247.545C679.05 244.455 678.05 240.606 678.05 236C678.05 232.121 678.762 228.864 680.186 226.227C681.611 223.591 683.55 221.47 686.005 219.864C688.459 218.258 691.247 217.045 694.368 216.227C697.52 215.409 700.823 214.833 704.277 214.5C708.338 214.076 711.611 213.682 714.095 213.318C716.58 212.924 718.383 212.348 719.505 211.591C720.626 210.833 721.186 209.712 721.186 208.227V207.955C721.186 205.076 720.277 202.848 718.459 201.273C716.671 199.697 714.126 198.909 710.823 198.909C707.338 198.909 704.565 199.682 702.505 201.227C700.444 202.742 699.08 204.652 698.414 206.955L680.505 205.5C681.414 201.258 683.202 197.591 685.868 194.5C688.535 191.379 691.974 188.985 696.186 187.318C700.429 185.621 705.338 184.773 710.914 184.773C714.792 184.773 718.505 185.227 722.05 186.136C725.626 187.045 728.792 188.455 731.55 190.364C734.338 192.273 736.535 194.727 738.141 197.727C739.747 200.697 740.55 204.258 740.55 208.409V255.5H722.186V245.818H721.641C720.52 248 719.02 249.924 717.141 251.591C715.262 253.227 713.005 254.515 710.368 255.455C707.732 256.364 704.686 256.818 701.232 256.818ZM706.777 243.455C709.626 243.455 712.141 242.894 714.323 241.773C716.505 240.621 718.217 239.076 719.459 237.136C720.702 235.197 721.323 233 721.323 230.545V223.136C720.717 223.53 719.883 223.894 718.823 224.227C717.792 224.53 716.626 224.818 715.323 225.091C714.02 225.333 712.717 225.561 711.414 225.773C710.111 225.955 708.929 226.121 707.868 226.273C705.595 226.606 703.611 227.136 701.914 227.864C700.217 228.591 698.898 229.576 697.959 230.818C697.02 232.03 696.55 233.545 696.55 235.364C696.55 238 697.505 240.015 699.414 241.409C701.353 242.773 703.808 243.455 706.777 243.455ZM793.118 185.682V200.227H750.027V185.682H793.118ZM759.891 255.5V180.636C759.891 175.576 760.876 171.379 762.845 168.045C764.845 164.712 767.573 162.212 771.027 160.545C774.482 158.879 778.406 158.045 782.8 158.045C785.77 158.045 788.482 158.273 790.936 158.727C793.421 159.182 795.27 159.591 796.482 159.955L793.027 174.5C792.27 174.258 791.33 174.03 790.209 173.818C789.118 173.606 787.997 173.5 786.845 173.5C783.997 173.5 782.012 174.167 780.891 175.5C779.77 176.803 779.209 178.636 779.209 181V255.5H759.891ZM842.084 185.682V200.227H800.039V185.682H842.084ZM809.584 168.955H828.948V234.045C828.948 235.833 829.22 237.227 829.766 238.227C830.311 239.197 831.069 239.879 832.039 240.273C833.039 240.667 834.19 240.864 835.493 240.864C836.402 240.864 837.311 240.788 838.22 240.636C839.13 240.455 839.827 240.318 840.311 240.227L843.357 254.636C842.387 254.939 841.023 255.288 839.266 255.682C837.508 256.106 835.372 256.364 832.857 256.455C828.19 256.636 824.099 256.015 820.584 254.591C817.099 253.167 814.387 250.955 812.448 247.955C810.508 244.955 809.554 241.167 809.584 236.591V168.955ZM905.561 189.182C905.198 185.515 903.637 182.667 900.88 180.636C898.122 178.606 894.38 177.591 889.652 177.591C886.44 177.591 883.728 178.045 881.516 178.955C879.304 179.833 877.607 181.061 876.425 182.636C875.273 184.212 874.698 186 874.698 188C874.637 189.667 874.986 191.121 875.743 192.364C876.531 193.606 877.607 194.682 878.97 195.591C880.334 196.47 881.91 197.242 883.698 197.909C885.486 198.545 887.395 199.091 889.425 199.545L897.789 201.545C901.849 202.455 905.577 203.667 908.97 205.182C912.364 206.697 915.304 208.561 917.789 210.773C920.273 212.985 922.198 215.591 923.561 218.591C924.955 221.591 925.667 225.03 925.698 228.909C925.667 234.606 924.213 239.545 921.334 243.727C918.486 247.879 914.364 251.106 908.97 253.409C903.607 255.682 897.137 256.818 889.561 256.818C882.046 256.818 875.501 255.667 869.925 253.364C864.38 251.061 860.046 247.652 856.925 243.136C853.834 238.591 852.213 232.97 852.061 226.273H871.107C871.319 229.394 872.213 232 873.789 234.091C875.395 236.152 877.531 237.712 880.198 238.773C882.895 239.803 885.94 240.318 889.334 240.318C892.667 240.318 895.561 239.833 898.016 238.864C900.501 237.894 902.425 236.545 903.789 234.818C905.152 233.091 905.834 231.106 905.834 228.864C905.834 226.773 905.213 225.015 903.97 223.591C902.758 222.167 900.97 220.955 898.607 219.955C896.273 218.955 893.41 218.045 890.016 217.227L879.88 214.682C872.031 212.773 865.834 209.788 861.289 205.727C856.743 201.667 854.486 196.197 854.516 189.318C854.486 183.682 855.986 178.758 859.016 174.545C862.077 170.333 866.273 167.045 871.607 164.682C876.94 162.318 883.001 161.136 889.789 161.136C896.698 161.136 902.728 162.318 907.88 164.682C913.061 167.045 917.092 170.333 919.97 174.545C922.849 178.758 924.334 183.636 924.425 189.182H905.561ZM975.709 185.682V200.227H933.664V185.682H975.709ZM943.209 168.955H962.573V234.045C962.573 235.833 962.845 237.227 963.391 238.227C963.936 239.197 964.694 239.879 965.664 240.273C966.664 240.667 967.815 240.864 969.118 240.864C970.027 240.864 970.936 240.788 971.845 240.636C972.755 240.455 973.452 240.318 973.936 240.227L976.982 254.636C976.012 254.939 974.648 255.288 972.891 255.682C971.133 256.106 968.997 256.364 966.482 256.455C961.815 256.636 957.724 256.015 954.209 254.591C950.724 253.167 948.012 250.955 946.073 247.955C944.133 244.955 943.179 241.167 943.209 236.591V168.955ZM1033.1 225.773V185.682H1052.46V255.5H1033.87V242.818H1033.14C1031.57 246.909 1028.94 250.197 1025.28 252.682C1021.64 255.167 1017.2 256.409 1011.96 256.409C1007.29 256.409 1003.19 255.348 999.641 253.227C996.095 251.106 993.323 248.091 991.323 244.182C989.353 240.273 988.353 235.591 988.323 230.136V185.682H1007.69V226.682C1007.72 230.803 1008.82 234.061 1011 236.455C1013.19 238.848 1016.11 240.045 1019.78 240.045C1022.11 240.045 1024.29 239.515 1026.32 238.455C1028.35 237.364 1029.99 235.758 1031.23 233.636C1032.5 231.515 1033.13 228.894 1033.1 225.773ZM1093.68 256.636C1088.37 256.636 1083.57 255.273 1079.27 252.545C1074.99 249.788 1071.6 245.742 1069.08 240.409C1066.6 235.045 1065.36 228.47 1065.36 220.682C1065.36 212.682 1066.64 206.03 1069.22 200.727C1071.8 195.394 1075.22 191.409 1079.49 188.773C1083.8 186.106 1088.51 184.773 1093.63 184.773C1097.54 184.773 1100.8 185.439 1103.4 186.773C1106.04 188.076 1108.16 189.712 1109.77 191.682C1111.4 193.621 1112.64 195.53 1113.49 197.409H1114.08V162.409H1133.4V255.5H1114.31V244.318H1113.49C1112.58 246.258 1111.3 248.182 1109.63 250.091C1107.99 251.97 1105.86 253.53 1103.22 254.773C1100.61 256.015 1097.43 256.636 1093.68 256.636ZM1099.81 241.227C1102.93 241.227 1105.57 240.379 1107.72 238.682C1109.9 236.955 1111.57 234.545 1112.72 231.455C1113.9 228.364 1114.49 224.742 1114.49 220.591C1114.49 216.439 1113.92 212.833 1112.77 209.773C1111.61 206.712 1109.95 204.348 1107.77 202.682C1105.58 201.015 1102.93 200.182 1099.81 200.182C1096.63 200.182 1093.95 201.045 1091.77 202.773C1089.58 204.5 1087.93 206.894 1086.81 209.955C1085.69 213.015 1085.13 216.561 1085.13 220.591C1085.13 224.652 1085.69 228.242 1086.81 231.364C1087.96 234.455 1089.61 236.879 1091.77 238.636C1093.95 240.364 1096.63 241.227 1099.81 241.227ZM1149.32 255.5V185.682H1168.69V255.5H1149.32ZM1159.05 176.682C1156.17 176.682 1153.7 175.727 1151.64 173.818C1149.61 171.879 1148.6 169.561 1148.6 166.864C1148.6 164.197 1149.61 161.909 1151.64 160C1153.7 158.061 1156.17 157.091 1159.05 157.091C1161.93 157.091 1164.38 158.061 1166.41 160C1168.47 161.909 1169.5 164.197 1169.5 166.864C1169.5 169.561 1168.47 171.879 1166.41 173.818C1164.38 175.727 1161.93 176.682 1159.05 176.682ZM1215.74 256.864C1208.68 256.864 1202.58 255.364 1197.43 252.364C1192.3 249.333 1188.35 245.121 1185.56 239.727C1182.77 234.303 1181.38 228.015 1181.38 220.864C1181.38 213.652 1182.77 207.348 1185.56 201.955C1188.35 196.53 1192.3 192.318 1197.43 189.318C1202.58 186.288 1208.68 184.773 1215.74 184.773C1222.8 184.773 1228.89 186.288 1234.02 189.318C1239.17 192.318 1243.14 196.53 1245.93 201.955C1248.71 207.348 1250.11 213.652 1250.11 220.864C1250.11 228.015 1248.71 234.303 1245.93 239.727C1243.14 245.121 1239.17 249.333 1234.02 252.364C1228.89 255.364 1222.8 256.864 1215.74 256.864ZM1215.83 241.864C1219.05 241.864 1221.73 240.955 1223.88 239.136C1226.03 237.288 1227.65 234.773 1228.74 231.591C1229.86 228.409 1230.43 224.788 1230.43 220.727C1230.43 216.667 1229.86 213.045 1228.74 209.864C1227.65 206.682 1226.03 204.167 1223.88 202.318C1221.73 200.47 1219.05 199.545 1215.83 199.545C1212.59 199.545 1209.86 200.47 1207.65 202.318C1205.47 204.167 1203.82 206.682 1202.7 209.864C1201.61 213.045 1201.06 216.667 1201.06 220.727C1201.06 224.788 1201.61 228.409 1202.7 231.591C1203.82 234.773 1205.47 237.288 1207.65 239.136C1209.86 240.955 1212.59 241.864 1215.83 241.864Z" fill="#FF9900"/>
</g>
<defs>
<filter id="filter0_d_8_6" x="97.2059" y="80.7119" width="331.588" height="269.576" filterUnits="userSpaceOnUse" color-interpolation-filters="sRGB">
<feFlood flood-opacity="0" result="BackgroundImageFix"/>
<feColorMatrix in="SourceAlpha" type="matrix" values="0 0 0 0 0 0 0 0 0 0 0 0 0 0 0 0 0 0 127 0" result="hardAlpha"/>
<feOffset dy="11"/>
<feGaussianBlur stdDeviation="1"/>
<feColorMatrix type="matrix" values="0 0 0 0 0 0 0 0 0 0 0 0 0 0 0 0 0 0 0.45 0"/>
<feBlend mode="normal" in2="BackgroundImageFix" result="effect1_dropShadow_8_6"/>
<feBlend mode="normal" in="SourceGraphic" in2="effect1_dropShadow_8_6" result="shape"/>
</filter>
<filter id="filter1_d_8_6" x="531.425" y="157.091" width="720.682" height="112.773" filterUnits="userSpaceOnUse" color-interpolation-filters="sRGB">
<feFlood flood-opacity="0" result="BackgroundImageFix"/>
<feColorMatrix in="SourceAlpha" type="matrix" values="0 0 0 0 0 0 0 0 0 0 0 0 0 0 0 0 0 0 127 0" result="hardAlpha"/>
<feOffset dy="11"/>
<feGaussianBlur stdDeviation="1"/>
<feComposite in2="hardAlpha" operator="out"/>
<feColorMatrix type="matrix" values="0 0 0 0 0 0 0 0 0 0 0 0 0 0 0 0 0 0 0.45 0"/>
<feBlend mode="normal" in2="BackgroundImageFix" result="effect1_dropShadow_8_6"/>
<feBlend mode="normal" in="SourceGraphic" in2="effect1_dropShadow_8_6" result="shape"/>
</filter>
</defs>
</svg>
